# AST/ASF file generated using VICON BodyLanguage
# -----------------------------------------------
:version 1.10
:name VICON
:units
  mass 1.0
  length 0.45
  angle deg
:documentation
   .ast/.asf automatically generated from VICON data using
   VICON BodyBuilder and BodyLanguage model FoxedUp or BRILLIANT.MOD
:root
   order TX TY TZ RX RY RZ
   axis XYZ
   position 0 0 0  
   orientation 0 0 0 
:bonedata
  begin
     id 1 
     name lhipjoint
     direction 0.598477 -0.721498 0.348234 
     length 2.38516 
     axis 0 0 0  XYZ
  end
  begin
     id 2 
     name lfemur
     direction 0.34202 -0.939693 0  
     length 6.81097  
     axis 0 0 20  XYZ
    dof rx ry rz
    limits (-160.0 20.0)
           (-70.0 70.0)
           (-60.0 70.0)
  end
  begin
     id 3 
     name ltibia
     direction 0.34202 -0.939693 0   
     length 7.43697   
     axis 0 0 20   XYZ
    dof rx
    limits (-10.0 170.0)
  end
  begin
     id 4 
     name lfoot
     direction 0.0644912 -0.177188 0.982062   
     length 2.0384   
     axis -90 7.62852e-016 20   XYZ
    dof rx rz
    limits (-45.0 90.0)
           (-70.0 20.0)
  end
  begin
     id 5 
     name ltoes
     direction 1.53517e-011 -4.21905e-011 1   
     length 1.02854   
     axis -90 7.62852e-016 20   XYZ
    dof rx
    limits (-90.0 20.0)
  end
  begin
     id 6 
     name rhipjoint
     direction -0.591517 -0.726138 0.350474   
     length 2.36992  
     axis 0 0 0  XYZ 
  end
  begin
     id 7 
     name rfemur
     direction -0.34202 -0.939693 0   
     length 6.93503   
     axis 0 0 -20   XYZ
    dof rx ry rz
    limits (-160.0 20.0)
           (-70.0 70.0)
           (-70.0 60.0)
  end
  begin
     id 8 
     name rtibia
     direction -0.34202 -0.939693 0   
     length 7.45107   
     axis 0 0 -20   XYZ
    dof rx
    limits (-10.0 170.0)
 end
 begin
     id 9 
     name rfoot
     direction -0.0677555 -0.186157 0.980181   
     length 1.90244  
     axis -90 -7.62852e-016 -20   XYZ
    dof rx rz
    limits (-45.0 90.0)
           (-20.0 70.0)
  end
  begin
     id 10 
     name rtoes
     direction -1.53409e-011 -4.21428e-011 1   
     length 0.961454   
     axis -90 -7.62852e-016 -20   XYZ
    dof rx
    limits (-90.0 20.0)
  end
  begin
     id 11 
     name lowerback
     direction -0.0289484 0.992437 0.119291   
     length 1.96261   
     axis 0 0 0   XYZ
    dof rx ry rz
    limits (-20.0 45.0)
           (-30.0 30.0)
           (-30.0 30.0)
  end
  begin
     id 12 
     name upperback
     direction 0.0109352 0.999834 0.0146028   
     length 1.96894   
     axis 0 0 0   XYZ
    dof rx ry rz
    limits (-20.0 45.0)
           (-30.0 30.0)
           (-30.0 30.0)
  end
  begin
     id 13 
     name thorax
     direction 0.0232227 0.998895 -0.0408582   
     length 2.00029   
     axis 0 0 0   XYZ
    dof rx ry rz
    limits (-20.0 45.0)
           (-30.0 30.0)
           (-30.0 30.0)
  end
  begin
     id 14 
     name lowerneck
     direction -0.00291659 0.999583 0.0287188   
     length 1.72722   
     axis 0 0 0   XYZ
    dof rx ry rz
    limits (-20.0 45.0)
           (-30.0 30.0)
           (-30.0 30.0)
  end
  begin
     id 15 
     name upperneck
     direction 0.0277639 0.998467 -0.0478817   
     length 1.68525   
     axis 0 0 0   XYZ
    dof rx ry rz
    limits (-20.0 45.0)
           (-30.0 30.0)
           (-30.0 30.0)
  end
  begin
     id 16
     name head
     direction 0.00895921 0.999741 -0.020943  
     length 1.78934  
     axis 0 0 0   XYZ
    dof rx ry rz
    limits (-20.0 45.0)
           (-30.0 30.0)
           (-30.0 30.0)
  end
  begin
     id 17 
     name lclavicle
     direction 0.907972 0.393865 -0.143029  
     length 3.37543  
     axis 0 0 0   XYZ
    dof ry rz
    limits (-20.0 10.0)
           (0.0 20.0)
  end
  begin
     id 18 
     name lhumerus
     direction 1 -4.48915e-011 -1.10425e-027   
     length 4.94762   
     axis -180 -30 -90   XYZ
    dof rx ry rz
    limits (-60.0 90.0)
           (-90.0 90.0)
           (-90.0 90.0)
  end
  begin
     id 19
     name lradius
     direction 1 1.63657e-005 -9.44877e-006   
     length 3.11144   
     axis -180 -30 -90   XYZ
    dof rx
    limits (-10.0 170.0)
  end
  begin
     id 20
     name lwrist
     direction 1 -5.04565e-007 -1.8883e-005   
     length 1.55572   
     axis 1.22104e-015 90 90   XYZ
    dof ry
    limits (-180.0 0.0)
 end
  begin
     id 21 
     name lhand
     direction 1 -4.48949e-011 -2.20333e-027   
     length 0.686387   
     axis 1.40591e-015 90 90   XYZ
    dof rx rz
    limits (-90.0 90.0)
           (-45.0 45.0)
  end
  begin
     id 22 
     name lfingers
     direction 1 -4.49191e-011 -4.40665e-027   
     length 0.553383   
     axis 2.81182e-015 90 90   XYZ
    dof rx
    limits (0.0 90.0)
  end
  begin
     id 23
     name lthumb
     direction 0.707107 -6.35116e-011 0.707107   
     length 0.79455   
     axis -90 45 2.85299e-015   XYZ
    dof rx rz
    limits (-45.0 45.0)
           (-45.0 45.0)
  end
  begin
     id 24 
     name rclavicle
     direction -0.947168 0.319303 -0.0302977   
     length 3.53547  
     axis 0 0 0   XYZ 
    dof ry rz
    limits (-10.0 20.0)
           (-20.0 0.0)
  end
  begin
     id 25 
     name rhumerus
     direction -1 -0.000401632 0.000196042  
     length 4.77566   
     axis -180 30 90   XYZ
    dof rx ry rz
    limits (-90.0 60.0)
           (-90.0 90.0)
           (-90.0 90.0)
  end
  begin
     id 26 
     name rradius
     direction -1 -4.49012e-011 -4.87197e-027   
     length 3.21433   
     axis -180 30 90   XYZ
    dof rx
    limits (-10.0 170.0)
  end
  begin
     id 27 
     name rwrist
     direction -1 -4.48899e-011 -5.86351e-027   
     length 1.60716   
     axis 3.17445e-015 -90 -90   XYZ
    dof ry
    limits (-180.0 0.0)
  end
  begin
     id 28
     name rhand
     direction -0.999958 0.00678358 -0.00613214   
     length 0.625487   
     axis 7.48284e-015 -90 -90   XYZ
    dof rx rz
    limits (-90.0 90.0)
           (-45.0 45.0)
  end
  begin
     id 29
     name rfingers
     direction -1 -4.48756e-011 -2.3454e-026   
     length 0.505648   
     axis 1.49657e-014 -90 -90   XYZ
    dof rx
    limits (0.0 90.0)
  end
  begin
     id 30
     name rthumb
     direction -0.708559 0.00587598 0.705627   
     length 0.722099   
     axis -90 -45 -2.85299e-015   XYZ
    dof rx rz
    limits (-45.0 45.0)
           (-45.0 45.0)
  end
:hierarchy
  begin
    root lhipjoint rhipjoint lowerback
    lhipjoint lfemur
    lfemur ltibia
    ltibia lfoot
    lfoot ltoes
    rhipjoint rfemur
    rfemur rtibia
    rtibia rfoot
    rfoot rtoes
    lowerback upperback
    upperback thorax
    thorax lowerneck lclavicle rclavicle
    lowerneck upperneck
    upperneck head
    lclavicle lhumerus
    lhumerus lradius
    lradius lwrist
    lwrist lhand lthumb
    lhand lfingers
    rclavicle rhumerus
    rhumerus rradius
    rradius rwrist
    rwrist rhand rthumb
    rhand rfingers
  end

#!OML:ASF C:\Documents and Settings\Administrator\Desktop\SteveTeapot.ASF
:FULLY-SPECIFIED
:DEGREES
1568
root 2.04613 16.3031 -7.66627 18.4196 -19.7272 1.18427
lowerback -11.6929 -4.25636 -6.83659
upperback -2.26449 -4.86458 0.721701
thorax 4.78808 -2.51928 3.81505
lowerneck 0.899505 -7.62688 -5.34011
upperneck 0.161903 -10.3724 11.8593
head 0.905146 -5.21999 4.75096
rclavicle -1.2921e-014 -1.78906e-014
rhumerus -39.6936 -21.0404 -69.1677
rradius 33.3831
rwrist -38.7455
rhand 0.896168 -35.9878
rfingers 7.12502
rthumb 26.4485 -64.1624
lclavicle -1.2921e-014 -1.78906e-014
lhumerus -24.513 23.6552 65.2681
lradius 21.7878
lwrist -9.70819
lhand -26.9918 -15.2658
lfingers 7.12502
lthumb -0.412183 14.7136
rfemur -41.4773 5.0134 13.7594
rtibia 50.7842
rfoot -22.0504 6.86439
rtoes -10.4174
lfemur -32.6924 18.1142 -31.1428
ltibia 37.1924
lfoot -32.6593 -7.31021
ltoes -28.2803
1569
root 2.02706 16.3096 -7.65405 18.3705 -20.0112 1.08052
lowerback -11.6874 -4.34234 -6.9146
upperback -2.32643 -4.97595 0.799987
thorax 4.74636 -2.57374 3.92382
lowerneck 1.02722 -7.49079 -5.34738
upperneck 0.247047 -10.1945 11.6669
head 0.880592 -5.13255 4.69379
rclavicle -8.12532e-014 -1.19271e-014
rhumerus -39.2401 -23.5647 -68.5705
rradius 31.7169
rwrist -38.4075
rhand -4.599 -35.7582
rfingers 7.12502
rthumb 21.1787 -64.6213
lclavicle -8.12532e-014 -1.19271e-014
lhumerus -24.8569 22.9152 65.9511
lradius 21.8071
lwrist -9.65859
lhand -26.1498 -14.194
lfingers 7.12502
lthumb 0.401033 15.7854
rfemur -41.7985 4.97909 13.8577
rtibia 51.3855
rfoot -21.284 7.65977
rtoes -9.26319
lfemur -32.4784 18.0185 -30.946
ltibia 37.1951
lfoot -32.5572 -6.47877
ltoes -28.4394
1570
root 2.01909 16.3175 -7.63389 18.0053 -19.4733 1.25382
lowerback -11.4804 -4.64232 -6.84232
upperback -2.22663 -5.39237 0.743101
thorax 4.77728 -2.78086 3.75867
lowerneck 1.00382 -7.34326 -4.99852
upperneck 0.229408 -9.98316 11.385
head 0.820398 -5.02562 4.53232
rclavicle -1.10822e-014 -7.55382e-015
rhumerus -38.7701 -26.1237 -68.1545
rradius 30.0819
rwrist -37.4268
rhand -9.50645 -35.8871
rfingers 7.12502
rthumb 16.4589 -65.2089
lclavicle -1.10822e-014 -7.55382e-015
lhumerus -25.0304 22.2499 66.6443
lradius 21.9627
lwrist -10.4475
lhand -25.1451 -13.5232
lfingers 7.12502
lthumb 1.37143 16.4521
rfemur -41.6843 4.06805 13.9752
rtibia 51.9723
rfoot -20.8333 8.08313
rtoes -10.2537
lfemur -31.898 17.3478 -30.7598
ltibia 37.1742
lfoot -32.4748 -5.80327
ltoes -28.6797
1571
root 2.00808 16.3248 -7.62018 18.0068 -19.3829 1.10208
lowerback -11.4098 -4.74257 -6.66105
upperback -2.20889 -5.55382 0.773704
thorax 4.76293 -2.85829 3.66556
lowerneck 0.906716 -7.35564 -5.0601
upperneck 0.284892 -10.0048 11.4303
head 0.864334 -5.03285 4.55391
rclavicle -5.86415e-015 -4.77083e-015
rhumerus -38.4074 -29.3328 -67.3328
rradius 28.2503
rwrist -35.5729
rhand -14.0721 -36.534
rfingers 7.12502
rthumb 12.0596 -66.1665
lclavicle -5.86415e-015 -4.77083e-015
lhumerus -25.1344 21.5791 67.4324
lradius 22.3108
lwrist -11.4411
lhand -25.3849 -14.9554
lfingers 7.12502
lthumb 1.13983 15.0213
rfemur -41.9673 3.58962 14.2586
rtibia 52.5621
rfoot -20.5213 8.46613
rtoes -12.255
lfemur -31.7474 17.1483 -30.4964
ltibia 37.1481
lfoot -32.2018 -5.69957
ltoes -27.8647
1572
root 1.99392 16.3288 -7.60931 18.1194 -19.5313 0.815392
lowerback -11.335 -4.72945 -6.48612
upperback -2.226 -5.56893 0.877032
thorax 4.69963 -2.86246 3.68056
lowerneck 0.695224 -7.36291 -4.92544
upperneck 0.379573 -10.014 11.3045
head 0.917961 -5.02882 4.47139
rclavicle -9.15403e-014 -7.55382e-015
rhumerus -38.1967 -32.5343 -66.2995
rradius 26.3012
rwrist -32.6774
rhand -18.0059 -37.3178
rfingers 7.12502
rthumb 8.26469 -67.1361
lclavicle -9.15403e-014 -7.55382e-015
lhumerus -25.1511 20.7139 68.4162
lradius 22.445
lwrist -11.8953
lhand -25.8662 -16.4166
lfingers 7.12502
lthumb 0.674996 13.5621
rfemur -42.3888 3.39061 14.5894
rtibia 53.1694
rfoot -20.1487 9.14877
rtoes -14.8239
lfemur -31.7416 17.152 -30.1941
ltibia 37.1617
lfoot -31.9134 -5.30714
ltoes -27.7166
1573
root 1.97687 16.3334 -7.60293 18.2425 -19.7418 0.646907
lowerback -11.3725 -4.70975 -6.45586
upperback -2.22631 -5.54663 0.931582
thorax 4.72008 -2.85206 3.7222
lowerneck 0.623436 -7.36424 -4.87226
upperneck 0.41106 -10.0162 11.2794
head 0.936539 -5.02716 4.44837
rclavicle 7.17613e-014 -4.37326e-015
rhumerus -38.0763 -35.6222 -65.2906
rradius 24.2139
rwrist -28.6916
rhand -21.4552 -38.5212
rfingers 7.12502
rthumb 4.93482 -68.4437
lclavicle 7.17613e-014 -4.37326e-015
lhumerus -24.9506 19.6457 69.4884
lradius 22.0167
lwrist -12.1731
lhand -25.9475 -16.9158
lfingers 7.12502
lthumb 0.596428 13.0631
rfemur -42.948 3.26373 14.8043
rtibia 53.7729
rfoot -19.5012 9.99853
rtoes -18.0606
lfemur -31.7833 16.9078 -29.9726
ltibia 37.242
lfoot -31.5413 -4.59798
ltoes -27.66
1574
root 1.95834 16.3383 -7.59731 18.3172 -20.0963 0.542444
lowerback -11.2236 -4.6568 -6.62794
upperback -2.3662 -5.47705 1.04477
thorax 4.50874 -2.81322 3.96611
lowerneck 0.580989 -7.32819 -4.95028
upperneck 0.619145 -9.98235 11.1991
head 1.00835 -5.00443 4.42993
rclavicle 4.95471e-014 5.56597e-015
rhumerus -38.6952 -39.6567 -62.9871
rradius 21.5592
rwrist -22.1117
rhand -23.9667 -40.1081
rfingers 7.12502
rthumb 2.50954 -70.0731
lclavicle 4.95471e-014 5.56597e-015
lhumerus -24.9944 18.1453 70.7844
lradius 21.7054
lwrist -11.8117
lhand -25.8408 -16.8607
lfingers 7.12502
lthumb 0.699501 13.1178
rfemur -43.5029 3.27217 14.9073
rtibia 54.3451
rfoot -18.6828 10.9344
rtoes -19.5617
lfemur -31.7919 16.533 -29.7879
ltibia 37.3452
lfoot -31.0368 -4.18291
ltoes -26.5558
1575
root 1.94296 16.3443 -7.58053 18.306 -20.3581 0.289521
lowerback -10.8007 -4.62157 -6.67273
upperback -2.57275 -5.47353 1.27288
thorax 4.08379 -2.79879 4.27076
lowerneck 0.339166 -7.2354 -5.07588
upperneck 1.08065 -9.884 10.9953
head 1.18775 -4.93886 4.36594
rclavicle 7.86193e-014 2.78299e-014
rhumerus -40.2838 -44.1626 -59.3561
rradius 18.6712
rwrist -13.6505
rhand -25.8189 -41.7004
rfingers 7.12502
rthumb 0.72067 -71.679
lclavicle 7.86193e-014 2.78299e-014
lhumerus -25.4575 17.2187 72.03
lradius 21.7341
lwrist -11.6769
lhand -25.683 -17.3698
lfingers 7.12502
lthumb 0.851941 12.6083
rfemur -43.7572 3.09662 15.2066
rtibia 54.8732
rfoot -18.5097 11.3693
rtoes -21.8576
lfemur -31.5844 16.1041 -29.4
ltibia 37.4135
lfoot -30.5827 -3.68588
ltoes -25.2386
1576
root 1.93017 16.3508 -7.55852 18.4132 -20.5663 -0.165084
lowerback -10.5688 -4.53613 -6.39259
upperback -2.63126 -5.41559 1.4171
thorax 3.87623 -2.76188 4.29468
lowerneck -0.0305215 -7.23475 -4.9714
upperneck 1.35814 -9.89348 10.8617
head 1.33086 -4.92718 4.27798
rclavicle -8.95525e-014 -1.07344e-014
rhumerus -41.4686 -46.7907 -57.2064
rradius 16.5962
rwrist -6.86461
rhand -27.2428 -43.8657
rfingers 7.12502
rthumb -0.654555 -73.8445
lclavicle -8.95525e-014 -1.07344e-014
lhumerus -25.4763 16.5006 73.1111
lradius 21.3299
lwrist -11.9361
lhand -25.4203 -18.3435
lfingers 7.12502
lthumb 1.10559 11.6334
rfemur -44.0737 2.76398 15.7875
rtibia 55.3687
rfoot -18.4945 11.285
rtoes -26.4962
lfemur -31.4213 15.8184 -28.8506
ltibia 37.4493
lfoot -30.2741 -3.07601
ltoes -24.3065
